/* XPM */
static const char *sbrun_xpm[] = {
/* columns rows colors chars-per-pixel */
"32 32 143 2 ",
"   c #665457",
".  c #665558",
"X  c #665A5E",
"o  c #695A5C",
"O  c #665C61",
"+  c #6A5E62",
"@  c #6B6165",
"#  c #67676C",
"$  c #6B666B",
"%  c #67686E",
"&  c #6B696E",
"*  c #716366",
"=  c #76696B",
"-  c #6D6E74",
";  c #706E73",
":  c #7B6E70",
">  c #6F7076",
",  c #6D757B",
"<  c #6A787F",
"1  c #717075",
"2  c #7D7173",
"3  c #74777D",
"4  c #7B787C",
"5  c #807476",
"6  c #857A7C",
"7  c #6C7D83",
"8  c #717D84",
"9  c #768086",
"0  c #74848A",
"q  c #798289",
"w  c #75888E",
"e  c #79898F",
"r  c #758C92",
"t  c #7C8D94",
"y  c #739197",
"u  c #75949A",
"i  c #7A949A",
"p  c #7C9BA2",
"a  c #7CA0A7",
"s  c #7DA4AA",
"d  c #8D8385",
"f  c #948B8D",
"g  c #858E94",
"h  c #83969D",
"j  c #9D9596",
"k  c #A49D9E",
"l  c #829CA3",
"z  c #84A4AC",
"x  c #8AA6AC",
"c  c #85AEB4",
"v  c #8BAEB5",
"b  c #93AEB4",
"n  c #85B0B6",
"m  c #87B2B8",
"M  c #89B4BA",
"N  c #8CB9BF",
"B  c #91B3BA",
"V  c #91B8BE",
"C  c #ACA7A7",
"Z  c #A7A8AA",
"A  c #B1ABAC",
"S  c #A9B3B7",
"D  c #B5B0B0",
"F  c #BCB7B8",
"G  c #BDB8B9",
"H  c #8FBCC2",
"J  c #92BDC3",
"K  c #9ABEC3",
"L  c #92C0C6",
"P  c #9CC1C6",
"I  c #95C3C9",
"U  c #9AC4CA",
"Y  c #99C8CF",
"T  c #9CCDD3",
"R  c #9ED0D6",
"E  c #A2C2C7",
"W  c #A6C4C9",
"Q  c #AAC7CB",
"!  c #A3C9CE",
"~  c #ADC9CD",
"^  c #B0C2C6",
"/  c #B3CACE",
"(  c #A5CCD2",
")  c #ABCDD2",
"_  c #B3CDD1",
"`  c #A2D5DB",
"'  c #B3D2D6",
"]  c #B9D1D4",
"[  c #BBD6D9",
"{  c #BDD8DB",
"}  c #A7DCE2",
"|  c #A9DEE5",
" . c #B2DFE4",
".. c #AAE0E6",
"X. c #ACE3EA",
"o. c #B0E2E8",
"O. c #BAE5EA",
"+. c #C5C1C2",
"@. c #C8C4C5",
"#. c #CECBCC",
"$. c #D1CECE",
"%. c #C0D4D7",
"&. c #C3DADD",
"*. c #CBDBDE",
"=. c #D7D7D8",
"-. c #DAD9DA",
";. c #C6DEE1",
":. c #CCDEE1",
">. c #CDE0E3",
",. c #C9E7EB",
"<. c #C3E9ED",
"1. c #D3E2E4",
"2. c #D9E5E7",
"3. c #D7E6E8",
"4. c #DAE7E9",
"5. c #D0EAED",
"6. c #DDE8EA",
"7. c #D6EFF2",
"8. c #DBF0F3",
"9. c #E5E3E3",
"0. c #E2ECED",
"q. c #ECEBEC",
"w. c #E5EFF1",
"e. c #E3F1F3",
"r. c #EBF2F3",
"t. c #EBF6F7",
"y. c #ECF4F5",
"u. c #EFF4F4",
"i. c #E8F6F8",
"p. c #F3F3F3",
"a. c #F2F5F6",
"s. c #F6F6F6",
"d. c #F8F7F7",
"f. c #F3F7F8",
"g. c #F4F7F8",
"h. c #F3FAFB",
"j. c #F6F9F9",
"k. c #F7FBFC",
"l. c #FAFAFA",
"z. c #FAFBFC",
"x. c #F9FCFC",
"c. c #FCFCFC",
"v. c #FDFDFD",
". o 6 F q.v.l.9.A 2 o . .       . . . . . . . . . . . . . . . . ",
". . + d @.p.v.d.-.k = o O $ & @ O X .                 . . . . . ",
". . . * f #.p.v.s.-.S b J T R Y J B x l t q 3 ; $ O X . .     . ",
". . + 1 g ^ 0.x.v.k.e.<.X...............| } } ` T U J v x h ; . ",
". 3 J ` } o.<.i.x.v.k.8.O...| | | | | | | | | ......X.X.X.X.J $ ",
"X z T R ` ` } ,.t.x.v.h.7.O...| ..| | | | ....X.X.X...| ` R I - ",
"X p N N H J I ( ;.u.v.v.h.5. .} | | | ..X.X.X...} ` R Y I L m # ",
"X p M M M M M N P *.u.v.x.r.;.( T R ` } ..} ` T Y I L L L L v @ ",
"X i M M M M M M N E :.a.v.l.0.] K H J T T T I L L L L L L L z O ",
"X i M M M M M M M N W 1.g.v.l.6./ V N L I L L L L L L L L L l . ",
". i M M M M M M M M V ~ 2.j.v.j.2.W J L I L L L L L L L L L i . ",
". i M M M M M M M M M V _ 0.l.v.s.1.W I I L L L L L L L L L t   ",
". r M M M M M M M M M M J ] 0.z.v.a.:.) U L L L L L L L L L 9   ",
". r M M M M M M M M M M M K %.w.x.v.u.:.( I L L L L L L L J 3   ",
". r M M M M M M M M M M M M K &.r.v.x.r.;.! I L L L L L L H >   ",
". w M M M M M M M M M M M M N E *.a.v.x.e.{ U L L L L L L N &   ",
". 0 M M M M M M M M M M M M M N W 1.s.v.l.0.[ U I L L L L m @   ",
"  0 M M M M M M M M M M M M M M V Q 2.j.v.j.6.' I L L L L c O   ",
"  8 M M M M M M M M M M M M M M M V _ 0.l.v.j.3.) I L L L z X . ",
"  8 M M M M M M M M M M M M M M M M P { w.x.v.f.1.) I L L l . . ",
"  8 m M M M M M M M M M M M M M M M J ! &.r.x.v.u.:.! I L i . . ",
"  < m M M M M M M M M M M M M M M M J I ( ;.u.v.v.u.&.! I e   . ",
"  , m M M M M M M M M M M M M M M M J I I ! >.a.v.x.r.&.U 9 . . ",
"  , m M M M M M M M M M M M M M M M J I I I ) 1.f.v.l.0./ 4 . . ",
"  $ a n M M M M M M M M M M M M M M J I I L I ) 4.j.v.j.=.j * o ",
". . # 7 u s n M M M M M M M M M M M J I L L L U ' 4.s.v.p.#.f * ",
". .   . O % 7 u s c M M M M M M M M J I L L L J x Z -.l.v.p.@.f ",
". . . .     . O % 7 u s c m M M M M J I L L m w @ : C 9.l.v.q.+.",
". . . . . . .     . X # 7 y s c m M L I J a - . . o 5 D 9.l.l.q.",
". . . . . . . . . . .   . X # < r s M m r O   . . . o 6 G q.v.l.",
". . . . . . . . . . . . .     . X # , & .   . . . . . + d +.q.v.",
". . . . . . . . . . . . . . . . .       . . . . . . . . * f $.p."};
/* pixels */
/* i am not art-eest */
